<svg width="32" height="32" viewBox="0 0 32 32" xmlns="http://www.w3.org/2000/svg">
    <defs>
        <linearGradient id="gradient" x1="0%" y1="0%" x2="100%" y2="100%">
            <stop offset="0%" style="stop-color:#667eea;stop-opacity:1" />
            <stop offset="100%" style="stop-color:#764ba2;stop-opacity:1" />
        </linearGradient>
        <filter id="shadow" x="-20%" y="-20%" width="140%" height="140%">
            <feDropShadow dx="1" dy="2" stdDeviation="2" flood-color="#000000" flood-opacity="0.3"/>
        </filter>
    </defs>

    <!-- Background with gradient and shadow -->
    <rect width="32" height="32" rx="8" fill="url(#gradient)" filter="url(#shadow)"/>

    <!-- Calculator Body -->
    <rect x="6" y="6" width="20" height="20" rx="4" fill="white" opacity="0.95"/>

    <!-- Display -->
    <rect x="8" y="8" width="16" height="6" fill="#2d3748" rx="2"/>

    <!-- Display Text (simulated) -->
    <rect x="10" y="10" width="4" height="2" fill="#4a5568" rx="1"/>
    <rect x="16" y="10" width="6" height="2" fill="#4a5568" rx="1"/>

    <!-- Button Grid -->
    <g fill="#a0aec0">
        <!-- Row 1 -->
        <circle cx="12" cy="18" r="1.8"/>
        <circle cx="18" cy="18" r="1.8"/>
        <circle cx="24" cy="18" r="1.8"/>

        <!-- Row 2 -->
        <circle cx="12" cy="22" r="1.8"/>
        <circle cx="18" cy="22" r="1.8"/>
        <circle cx="24" cy="22" r="1.8"/>

        <!-- Row 3 -->
        <circle cx="12" cy="26" r="1.8"/>
        <circle cx="18" cy="26" r="1.8"/>
        <circle cx="24" cy="26" r="1.8"/>
    </g>

    <!-- Plus sign on center button (optional) -->
    <g fill="#667eea" opacity="0.8">
        <rect x="16.5" y="17.2" width="1" height="3.6" rx="0.5"/>
        <rect x="15.2" y="18.5" width="3.6" height="1" rx="0.5"/>
    </g>
</svg>
